Exact Audio Copy V0.99 prebeta 1 from 25. May 2007

EAC 抓取日志文件从11. 十一月 2010, 23:41

李谷一 / 20世纪中华歌坛名人百集珍藏版

使用驱动器  ：PIONEER DVD-RW  DVR-115   Adapter: 0  ID: 0

读取模式     : 保护
使用精确流   : 是
废除音频缓冲 : 是
使用 C2 指针 : 否

读取偏移校正                   : 38
读取 Lead-In 和 Lead-Out       : 否
用静音填充抓取中丢失偏移的采样 : 是
去除首尾静音块                 : 否
已用接口                       : Win NT 及 2000 本地 Win32 接口

所用输出格式 : 内部 WAV 函数
样本格式     : 44.100 Hz;16 Bit;立体声


被抓轨 CD 的 TOC

     音轨 |   开始   |   长度   | 起始扇区 | 结尾扇区 
    --------------------------------------------------
       1  |  0:00.00 |  3:52.17 |       0  |   17416  
       2  |  3:52.17 |  2:52.68 |   17417  |   30384  
       3  |  6:45.10 |  3:22.67 |   30385  |   45601  
       4  | 10:08.02 |  4:49.20 |   45602  |   67296  
       5  | 14:57.22 |  5:01.70 |   67297  |   89941  
       6  | 19:59.17 |  3:03.58 |   89942  |  103724  
       7  | 23:03.00 |  3:28.72 |  103725  |  119396  
       8  | 26:31.72 |  3:55.63 |  119397  |  137084  
       9  | 30:27.60 |  3:51.60 |  137085  |  154469  
      10  | 34:19.45 |  3:12.60 |  154470  |  168929  
      11  | 37:32.30 |  2:59.50 |  168930  |  182404  
      12  | 40:32.05 |  2:47.35 |  182405  |  194964  
      13  | 43:19.40 |  2:54.45 |  194965  |  208059  
      14  | 46:14.10 |  2:44.10 |  208060  |  220369  
      15  | 48:58.20 |  2:16.07 |  220370  |  230576  
      16  | 51:14.27 |  3:31.33 |  230577  |  246434  
      17  | 54:45.60 |  2:24.42 |  246435  |  257276  
      18  | 57:10.27 |  2:25.00 |  257277  |  268151  


范围状态及错误

已选择范围

     文件名 E:\文件夹\20世纪中华歌坛名人百集珍藏版-李谷一[lwg188原创]\李谷一 - 20世纪中华歌坛名人百集珍藏版.wav

     峰值电平 86.2 %
     范围质量 99.9 %
     复制 CRC E9967218
     复制成功

没有错误发生

状态报告结尾
